<?xml version="1.0" encoding="UTF-8" standalone="no"?>
<!-- Created with Inkscape (http://www.inkscape.org/) -->

<svg
   version="1.1"
   id="svg1"
   width="266.66666"
   height="266.66666"
   viewBox="0 0 266.66666 266.66666"
   sodipodi:docname="886281-200.png"
   inkscape:version="1.3.2 (091e20e, 2023-11-25, custom)"
   xmlns:inkscape="http://www.inkscape.org/namespaces/inkscape"
   xmlns:sodipodi="http://sodipodi.sourceforge.net/DTD/sodipodi-0.dtd"
   xmlns="http://www.w3.org/2000/svg"
   xmlns:svg="http://www.w3.org/2000/svg">
  <defs
     id="defs1" />
  <sodipodi:namedview
     id="namedview1"
     pagecolor="#ffffff"
     bordercolor="#000000"
     borderopacity="0.25"
     inkscape:showpageshadow="2"
     inkscape:pageopacity="0.0"
     inkscape:pagecheckerboard="0"
     inkscape:deskcolor="#d1d1d1"
     inkscape:zoom="0.77759652"
     inkscape:cx="-59.79965"
     inkscape:cy="-46.939511"
     inkscape:window-width="2560"
     inkscape:window-height="1369"
     inkscape:window-x="-8"
     inkscape:window-y="-8"
     inkscape:window-maximized="1"
     inkscape:current-layer="g1" />
  <g
     inkscape:groupmode="layer"
     inkscape:label="Image"
     id="g1">
    <circle
       style="fill:#000000;stroke-width:30.2362;stroke-linecap:round"
       id="path2-3"
       cx="-319.43939"
       cy="56.671425"
       r="137.7664" />
    <circle
       style="fill:#999999;stroke-width:10;stroke-linecap:round;stroke:#000000;stroke-opacity:1;stroke-dasharray:none"
       id="path2-3-9"
       cx="-318.00995"
       cy="57.386753"
       r="137.7664" />
    <circle
       style="fill:#999999;stroke-width:10;stroke-linecap:round;stroke:#000000;stroke-opacity:1;stroke-dasharray:none"
       id="path2-5"
       cx="535.65381"
       cy="143.76849"
       r="137.7664" />
    <path
       style="fill:#ffd42a;stroke:#000000;stroke-width:0.885002;stroke-opacity:1"
       d="m 517.54777,255.42042 c -2.72042,-2.29562 -3.93169,-4.52477 -4.45284,-8.19475 -0.6919,-4.87238 -0.61817,-5.01864 2.19996,-4.36424 1.6037,0.3724 5.92116,0.99514 9.59433,1.38386 3.67318,0.38871 7.90795,0.94341 9.41062,1.23266 1.50266,0.28924 2.73211,1.33948 2.73211,2.33384 0,0.99438 -0.90994,3.26265 -2.02209,5.04059 -1.11216,1.77796 -3.32356,3.79262 -4.91423,4.47706 -1.59067,0.68442 -4.22386,1.24441 -5.85152,1.24441 -1.62767,0 -4.64102,-1.41904 -6.69634,-3.15343 z m 30.1396,1.42262 c -1.8198,-0.96378 -3.86889,-2.74075 -4.55353,-3.94882 -0.68464,-1.20807 -1.2448,-3.25262 -1.2448,-4.54344 0,-1.51278 0.97105,-2.53478 2.73211,-2.87547 1.50266,-0.29071 6.81194,-1.0489 11.79837,-1.68487 4.98644,-0.63597 9.1738,-1.05298 9.30525,-0.92668 0.13144,0.12631 -0.19741,2.47824 -0.73077,5.22654 -0.53336,2.74828 -2.02127,5.9899 -3.30647,7.20356 -1.28519,1.21368 -4.21653,2.45302 -6.51408,2.75409 -2.50553,0.32834 -5.50155,-0.15388 -7.48608,-1.20491 z m -25.83383,-15.89226 -8.49991,-1.29747 -1.0387,-6.88188 -1.0387,-6.88186 -23.24677,-5.06659 c -12.78571,-2.78662 -23.57455,-5.21951 -23.97519,-5.40644 -0.40065,-0.18693 2.1977,-12.09662 5.77408,-26.46599 3.57637,-14.36936 6.73947,-26.73108 7.02909,-27.47048 0.28961,-0.7394 1.65285,-1.06623 3.0294,-0.72628 1.37655,0.33994 2.50282,1.07392 2.50282,1.63104 0,0.55712 -0.81963,1.01295 -1.82141,1.01295 -1.00177,0 -1.82141,0.21021 -1.82141,0.46712 0,0.25691 -2.73983,11.42994 -6.08852,24.82895 -3.34869,13.39901 -5.9442,24.48721 -5.7678,24.64045 0.17641,0.15324 16.06672,3.75553 35.31181,8.00509 19.96127,4.40771 35.42148,7.29131 35.9931,6.71335 0.5511,-0.55722 3.58741,-11.50207 6.74735,-24.32187 3.21727,-13.05241 5.27879,-23.71293 4.68505,-24.22729 -0.58316,-0.5052 -9.80305,-2.81987 -20.48866,-5.14372 -10.6856,-2.32384 -20.65781,-4.50688 -22.16048,-4.85118 -1.50266,-0.34431 -2.73211,-1.08609 -2.73211,-1.64841 0,-0.56231 0.90463,-1.02239 2.0103,-1.02239 1.81385,0 1.93294,-1.59669 1.21871,-16.34047 -0.43537,-8.98725 -0.854,-19.43655 -0.93029,-23.22065 l -0.13872,-6.8802 -1.78008,6.30684 c -1.1268,3.99226 -1.94319,13.66903 -2.22453,26.36753 -0.41949,18.93459 -0.59223,20.17369 -3.07725,22.07396 -1.44806,1.10731 -3.87781,2.01329 -5.39946,2.01329 -1.52165,0 -4.05663,-0.98783 -5.63328,-2.19518 -2.82531,-2.16355 -2.86535,-2.49 -2.77713,-22.64732 0.0638,-14.57686 0.66681,-22.89174 2.09913,-28.94451 1.1053,-4.67081 3.59055,-11.68273 5.52278,-15.58205 1.93224,-3.89931 5.56439,-9.02673 8.07144,-11.394271 3.69881,-3.492969 5.1591,-4.171747 7.74473,-3.599931 1.75253,0.387578 11.45049,1.023236 21.55102,1.412573 11.78863,0.454408 22.60157,0.204252 30.19717,-0.698606 l 11.83258,-1.406492 4.59284,4.23522 c 2.52607,2.329371 6.30085,7.734557 8.3884,12.011527 2.08756,4.27697 4.54828,11.5754 5.46828,16.21871 0.92,4.64332 2.05573,13.20913 2.52386,19.03514 0.46812,5.82601 0.46051,14.75988 -0.0169,19.85307 -0.67627,7.21463 -1.42568,9.75094 -3.39237,11.48122 -1.38837,1.2215 -3.81219,2.2209 -5.38624,2.2209 -1.57404,0 -4.1432,-1.20999 -5.70922,-2.68886 -2.73236,-2.58031 -2.84723,-3.37883 -2.84563,-19.78056 9.1e-4,-9.40045 -0.65401,-20.44461 -1.45542,-24.54259 -0.8014,-4.09799 -1.93831,-8.2261 -2.52647,-9.1736 -0.64435,-1.03801 -1.08342,6.70885 -1.10472,19.49123 -0.0194,11.66766 -1.14468,38.24242 -2.50056,59.05502 -1.3559,20.8126 -2.67097,38.40108 -2.9224,39.08552 -0.25143,0.68443 -5.01683,1.84612 -10.58978,2.58153 -5.57295,0.73541 -10.81567,1.33645 -11.65048,1.33565 -1.00783,-8.6e-4 -1.51785,-1.89194 -1.51785,-5.62761 0,-5.06159 -0.24368,-5.56596 -2.42854,-5.02641 -1.9626,0.48467 -2.42855,1.56412 -2.42855,5.62615 0,4.75183 -0.18241,5.01898 -3.33925,4.89051 -1.83658,-0.0747 -7.1642,-0.71976 -11.83915,-1.43338 z m 5.83741,-19.17758 c -0.76872,-0.72594 -1.10871,-2.03105 -0.75552,-2.90022 0.35319,-0.86917 1.98777,-1.58031 3.63238,-1.58031 2.40292,0 2.91402,0.50445 2.60221,2.56836 -0.21341,1.4126 -1.21903,2.71769 -2.23471,2.90022 -1.01567,0.18251 -2.47563,-0.26211 -3.24436,-0.98805 z m -8.18066,-6.40417 c -0.44221,-1.08826 0.0287,-2.6889 1.08436,-3.68582 1.67852,-1.58511 2.06573,-1.57359 3.85348,0.11467 1.0931,1.03226 1.65667,2.69089 1.25239,3.68582 -0.40429,0.99493 -1.78662,1.80897 -3.07182,1.80897 -1.28521,0 -2.68849,-0.86564 -3.11841,-1.92364 z m 9.83127,-1.13423 c -0.44524,-0.42046 -0.80952,-1.72669 -0.80952,-2.90274 0,-1.17605 0.82659,-2.43781 1.83688,-2.80392 1.01028,-0.36611 2.63806,-0.0377 3.6173,0.72975 1.31968,1.03429 1.46174,1.95773 0.54895,3.56838 -0.67732,1.19515 -1.94082,2.17299 -2.80779,2.17299 -0.86697,0 -1.94059,-0.34401 -2.38582,-0.76446 z m -48.03843,-1.95694 c -0.76115,-0.86609 -1.04281,-2.41414 -0.62591,-3.4401 0.4169,-1.02596 1.76014,-1.86539 2.98497,-1.86539 1.22483,0 2.56769,0.52063 2.98414,1.15696 0.41645,0.63633 0.41188,2.18437 -0.0102,3.4401 -0.42204,1.25573 -1.48324,2.28314 -2.35824,2.28314 -0.875,0 -2.21366,-0.70862 -2.9748,-1.57471 z m 18.77879,-0.34893 c -0.44222,-1.08825 0.0287,-2.6889 1.08436,-3.68582 1.67852,-1.58511 2.05353,-1.58511 3.73205,0 1.05567,0.99692 1.52658,2.59757 1.08436,3.68582 -0.42992,1.058 -1.75759,1.92364 -2.95038,1.92364 -1.1928,0 -2.52047,-0.86564 -2.95039,-1.92364 z m -7.20292,-5.52991 c -0.38441,-0.94603 -0.38441,-2.49407 0,-3.4401 0.38442,-0.94603 1.39322,-1.72005 2.24176,-1.72005 0.84855,0 2.22306,0.77402 3.05446,1.72005 1.20599,1.37227 1.20599,2.06782 0,3.4401 -0.8314,0.94602 -2.20591,1.72005 -3.05446,1.72005 -0.84854,0 -1.85734,-0.77403 -2.24176,-1.72005 z m -19.52866,-0.46987 c -0.37551,-0.57377 -0.34929,-1.86381 0.0583,-2.86674 0.40755,-1.00295 1.71691,-1.82354 2.90971,-1.82354 1.19279,0 2.50217,0.82059 2.90971,1.82354 0.40755,1.00293 0.43376,2.29297 0.0583,2.86674 -0.3755,0.57377 -1.71109,1.04322 -2.96796,1.04322 -1.25688,0 -2.59245,-0.46945 -2.96796,-1.04322 z m 8.69908,-2.72691 c -0.35714,-0.8789 -0.2246,-2.24699 0.29453,-3.04021 0.51911,-0.79322 1.97122,-1.25537 3.2269,-1.027 1.32071,0.24018 2.28304,1.37528 2.28304,2.6929 0,1.44805 -0.93887,2.4042 -2.57756,2.62499 -1.41766,0.19102 -2.86977,-0.37179 -3.22691,-1.25068 z m 19.42837,0 c -0.35713,-0.8789 -0.2246,-2.24699 0.29452,-3.04021 0.51913,-0.79322 1.97124,-1.25537 3.22691,-1.027 1.32071,0.24018 2.28305,1.37528 2.28305,2.6929 0,1.44805 -0.93889,2.4042 -2.57757,2.62499 -1.41766,0.19102 -2.86977,-0.37179 -3.22691,-1.25068 z m -10.46048,-6.97817 c -0.76115,-0.86609 -1.04281,-2.41414 -0.6259,-3.4401 0.41689,-1.02597 1.76013,-1.8654 2.98496,-1.8654 1.22483,0 2.5677,0.52064 2.98415,1.15697 0.41645,0.63632 0.41187,2.18437 -0.0102,3.4401 -0.42204,1.25572 -1.48325,2.28313 -2.35825,2.28313 -0.87499,0 -2.21365,-0.70862 -2.9748,-1.5747 z m 25.49973,-1.1467 c -0.76115,-0.86609 -1.0428,-2.41413 -0.6259,-3.4401 0.4169,-1.02597 1.73392,-1.86539 2.92672,-1.86539 1.19279,0 2.50982,0.83942 2.92672,1.86539 0.41689,1.02597 0.13524,2.57401 -0.62591,3.4401 -0.76115,0.86609 -1.79651,1.5747 -2.30081,1.5747 -0.50431,0 -1.53967,-0.70861 -2.30082,-1.5747 z m 18.86153,-0.14535 c -0.38442,-0.94602 -0.38442,-2.49407 0,-3.44009 0.38441,-0.94603 1.3932,-1.72005 2.24175,-1.72005 0.84855,0 2.16557,0.70861 2.92672,1.5747 0.76114,0.86609 1.0428,2.41413 0.6259,3.4401 -0.4169,1.02597 -1.73393,1.86539 -2.92672,1.86539 -1.1928,0 -2.48324,-0.77402 -2.86765,-1.72005 z m -51.6469,-4.44146 c -0.76115,-0.86608 -1.0428,-2.41413 -0.6259,-3.44009 0.41689,-1.02596 1.73391,-1.86539 2.92671,-1.86539 1.1928,0 2.50982,0.83943 2.92672,1.86539 0.41691,1.02596 0.13524,2.57401 -0.62591,3.44009 -0.76114,0.8661 -1.79651,1.57472 -2.30081,1.57472 -0.50429,0 -1.53966,-0.70862 -2.30081,-1.57472 z m 44.02521,-1.29204 c -0.38442,-0.94602 -0.38442,-2.49407 0,-3.44009 0.38442,-0.94603 1.46882,-1.72005 2.40978,-1.72005 0.94096,0 2.39107,0.77402 3.22247,1.72005 1.206,1.37227 1.206,2.06782 0,3.44009 -0.8314,0.94603 -2.28151,1.72005 -3.22247,1.72005 -0.94096,0 -2.02536,-0.77402 -2.40978,-1.72005 z m -19.40605,-1.09178 c -0.37215,-0.91582 -0.32275,-2.20586 0.10977,-2.86675 0.43252,-0.66088 1.78854,-1.20161 3.01337,-1.20161 1.22483,0 2.56042,0.82059 2.96796,1.82353 0.40754,1.00294 0.43376,2.29297 0.0583,2.86675 -0.3755,0.57376 -1.76048,1.04322 -3.07772,1.04322 -1.31726,0 -2.69948,-0.74932 -3.07163,-1.66514 z m -16.58722,-0.9583 c -0.35714,-0.87889 -0.22461,-2.24699 0.29452,-3.0402 0.51912,-0.79322 1.97123,-1.25537 3.2269,-1.02701 1.32071,0.24019 2.28305,1.37528 2.28305,2.6929 0,1.44805 -0.93888,2.4042 -2.57757,2.625 -1.41766,0.19102 -2.86977,-0.3718 -3.2269,-1.25069 z m 25.49974,-1.1467 c -0.35715,-0.87889 -0.22461,-2.24698 0.29452,-3.0402 0.51912,-0.79322 1.97123,-1.25537 3.2269,-1.02701 1.32071,0.24019 2.28304,1.37528 2.28304,2.6929 0,1.44805 -0.93887,2.4042 -2.57756,2.625 -1.41766,0.19102 -2.86977,-0.37179 -3.2269,-1.25069 z m 19.42836,0 c -0.35714,-0.87889 -0.22461,-2.24698 0.29452,-3.0402 0.51912,-0.79322 1.97123,-1.25537 3.2269,-1.02701 1.32072,0.24019 2.28305,1.37528 2.28305,2.6929 0,1.44805 -0.93888,2.4042 -2.57757,2.625 -1.41766,0.19102 -2.86977,-0.37179 -3.2269,-1.25069 z m -19.5896,-93.887753 c -5.2847,-0.569336 -12.64263,-1.67081 -16.35095,-2.447718 l -6.74243,-1.41256 0.32795,-5.71587 c 0.18036,-3.143727 0.85755,-11.636458 1.50485,-18.872733 0.64731,-7.236276 1.6439,-13.597856 2.21465,-14.136845 0.57075,-0.53899 5.68769,-1.840602 11.37097,-2.892472 9.80756,-1.815198 10.40439,-2.098313 11.7319,-5.56516 0.76926,-2.008966 3.27762,-5.210613 5.57413,-7.114768 2.29652,-1.904156 6.15235,-3.812328 8.56853,-4.24038 2.41617,-0.428053 6.45204,-0.195717 8.96859,0.516303 2.51656,0.712019 5.98185,2.339213 7.70066,3.615988 1.71881,1.276774 4.03916,4.277873 5.15634,6.669109 1.94528,4.163719 2.38078,4.404307 10.29109,5.685288 4.54293,0.735673 9.59921,1.913874 11.23618,2.618221 2.66981,1.148755 3.05252,2.184151 3.71628,10.054309 0.40699,4.825522 1.10067,13.481802 1.54154,19.23618 l 0.80155,10.462504 -7.75188,1.260409 c -4.26354,0.693226 -12.66969,1.786033 -18.68034,2.428457 -6.01065,0.642426 -15.57305,1.104788 -21.24977,1.027472 -5.67672,-0.07732 -14.64516,-0.606397 -19.92984,-1.175734 z m 0.60763,-3.974058 4.75093,-0.717429 v -5.917829 c 0,-3.653907 -0.92906,-7.638724 -2.42854,-10.416199 -1.3357,-2.474103 -2.42854,-5.937306 -2.42854,-7.696007 0,-1.758701 1.04395,-4.183499 2.3199,-5.38844 1.27594,-1.20494 5.50793,-2.815802 9.40441,-3.579694 3.96438,-0.777203 10.41456,-1.095232 14.64569,-0.722111 4.15864,0.36673 9.11904,1.427554 11.02309,2.357386 1.90406,0.929831 4.15349,2.477513 4.99873,3.439293 0.98797,1.124188 1.2396,3.096392 0.7046,5.522433 -0.45771,2.075558 -1.80055,5.365752 -2.98407,7.311543 -1.56346,2.570438 -1.99354,5.09377 -1.57286,9.228232 0.579,5.690432 0.579,5.690432 6.21591,6.940272 3.10031,0.687412 6.05794,1.012844 6.57252,0.723181 0.51459,-0.289662 0.65902,-3.714758 0.32096,-7.611324 -0.33805,-3.896565 -0.93913,-11.051839 -1.33573,-15.900607 -0.56014,-6.848248 -1.09569,-8.680193 -2.39942,-8.207743 -0.92308,0.33451 -4.56799,-0.691994 -8.09978,-2.281119 -3.5318,-1.589124 -9.20478,-3.222121 -12.60662,-3.628882 -3.40183,-0.406762 -9.68569,-0.159248 -13.96413,0.550031 -4.27844,0.709278 -9.25952,2.294652 -11.06906,3.523054 -1.80954,1.228402 -4.4222,2.233458 -5.80591,2.233458 -1.38369,0 -2.73107,0.645018 -2.99416,1.433374 -0.26308,0.788356 -0.83861,8.084532 -1.27895,16.213727 -0.73251,13.523048 -0.6279,14.717763 1.22974,14.04459 1.11669,-0.404669 4.16827,-1.058604 6.78129,-1.45319 z m -9.82034,-4.83495 c 0,-3.056535 0.34732,-10.178096 0.77182,-15.82569 l 0.77182,-10.268356 -5.14,-1.45428 c -2.82699,-0.799854 -5.3267,-1.277959 -5.5549,-1.062456 -0.2282,0.215502 -0.989,6.572449 -1.69067,14.126547 -0.70166,7.554098 -1.28139,14.861482 -1.28827,16.238631 -0.009,1.855192 0.8526,2.627672 3.32672,2.981612 1.83658,0.262736 4.5687,0.555019 6.07136,0.649516 2.48251,0.156115 2.73212,-0.33592 2.73212,-5.385524 z m 74.91249,3.986163 c 0.12909,-0.115468 -0.35456,-7.420409 -1.07479,-16.233202 -0.72024,-8.812794 -1.45569,-16.18803 -1.63435,-16.389414 -0.17865,-0.201384 -2.5637,0.267306 -5.30012,1.041533 l -4.97531,1.407686 0.007,6.412013 c 0.004,3.526608 0.36201,10.715719 0.79557,15.975802 l 0.78829,9.563788 5.57936,-0.784132 c 3.06866,-0.431273 5.685,-0.878606 5.81408,-0.994073 z m -28.03307,-1.389361 c -0.40538,-0.99761 -0.73705,-3.26405 -0.73705,-5.036535 v -3.2227 l -4.5067,2.169786 c -2.66128,1.281291 -7.01201,2.168031 -10.62489,2.165499 -3.90209,-0.0028 -7.51149,-0.806576 -9.9648,-2.219241 -3.32804,-1.916358 -3.9419,-1.980429 -4.55352,-0.475278 -0.3888,0.956822 -0.70691,3.245518 -0.70691,5.085991 v 3.346312 h 15.91546 c 14.01394,0 15.8274,-0.21671 15.17841,-1.813834 z"
       id="path1-3" />
    <path
       style="fill:#ffd42a;stroke:#000000;stroke-width:0.885002;stroke-opacity:1"
       d="m -347.28318,107.20166 4.18573,26.87602 -23.24677,-5.06659 c -12.78571,-2.78662 -23.74125,-5.0313 -23.97519,-5.40644 -5.7346,-9.1958 0.19772,-28.983527 2.83625,-2.08224 0.0228,0.23256 16.06672,3.75552 35.31181,8.00509 19.96127,4.40771 15.48826,4.39778 16.05988,3.81982 0.53018,-0.53608 -13.77111,-20.73822 -11.28352,-55.650537 0.10957,-1.537703 -2.73211,-1.08609 -2.73211,-1.64841 0,-0.56231 0.90463,-1.02239 2.0103,-1.02239 1.81385,0 1.93294,-1.59669 1.21871,-16.34047 -0.43537,-8.98725 -0.854,-19.43655 -0.93029,-23.22065 l -0.13872,-6.8802 -1.78008,6.30684 c -1.1268,3.99226 -1.94319,13.66903 -2.22453,26.36753 -0.41949,18.93459 -0.59223,20.17369 -3.07725,22.07396 -1.44806,1.10731 -3.87781,2.01329 -5.39946,2.01329 -1.52165,0 -4.05663,-0.98783 -5.63328,-2.19518 -2.82531,-2.16355 -2.86535,-2.49 -2.77713,-22.64732 0.0638,-14.57686 0.66681,-22.89174 2.09913,-28.94451 1.1053,-4.67081 3.59055,-11.68273 5.52278,-15.582043 1.93224,-3.899311 5.56439,-9.0267355 8.07144,-11.3942765 3.69881,-3.492969 5.1591,-4.17174696 7.74473,-3.59993096 1.75253,0.38757796 11.45049,1.02323596 21.55102,1.41257296 11.78863,0.454408 22.60157,0.204252 30.19717,-0.698606 l 11.83258,-1.40649196 4.59284,4.23521996 c 2.52607,2.329371 6.30085,7.7345585 8.3884,12.0115285 2.08756,4.276967 4.54828,11.575397 5.46828,16.218707 0.92,4.64332 2.05573,13.20913 2.52386,19.03514 0.46812,5.82601 0.46051,14.75988 -0.0169,19.85307 -0.67627,7.21463 -1.42568,9.75094 -3.39237,11.48122 -1.38837,1.2215 -3.81219,2.2209 -5.38624,2.2209 -1.57404,0 -4.1432,-1.20999 -5.70922,-2.68886 -2.73236,-2.58031 -2.84723,-3.37883 -2.84563,-19.78056 9.1e-4,-9.40045 -0.65401,-20.44461 -1.45542,-24.54259 -0.8014,-4.09799 -1.93831,-8.2261 -2.52647,-9.1736 -0.64435,-1.03801 -1.08342,6.70885 -1.10472,19.49123 -0.0194,11.66766 -1.14468,38.24242 -2.50056,59.055017 z M -337.27157,0.30209154 c -5.2847,-0.569336 -12.64263,-1.67081004 -16.35095,-2.44771804 l -6.74243,-1.41256 0.32795,-5.71587 c 0.18036,-3.1437275 0.85755,-11.6364575 1.50485,-18.8727325 0.64731,-7.236276 1.6439,-13.597856 2.21465,-14.136845 0.57075,-0.53899 5.68769,-1.840602 11.37097,-2.892472 9.80756,-1.815198 10.40439,-2.098313 11.7319,-5.56516 0.76926,-2.008966 3.27762,-5.210613 5.57413,-7.114769 2.29652,-1.904156 6.15235,-3.812327 8.56853,-4.24038 2.41617,-0.428053 6.45204,-0.195717 8.96859,0.516303 2.51656,0.712019 5.98185,2.339214 7.70066,3.615988 1.71881,1.276774 4.03916,4.277873 5.15634,6.669109 1.94528,4.163719 2.38078,4.404307 10.29109,5.685289 4.54293,0.735673 9.59921,1.913873 11.23618,2.618221 2.66981,1.148755 3.05252,2.184151 3.71628,10.054309 0.40699,4.825522 1.10067,13.481802 1.54154,19.236179 l 0.80155,10.4625035 -7.75188,1.26041 c -4.26354,0.693226 -12.66969,1.78603204 -18.68034,2.42845704 -6.01065,0.64242596 -15.57305,1.10478796 -21.24977,1.02747196 -5.67672,-0.07732 -14.64516,-0.60639696 -19.92984,-1.17573396 z m 0.60763,-3.97405804 4.75093,-0.717429 v -5.9178285 c 0,-3.653907 -0.92906,-7.638724 -2.42854,-10.416199 -1.3357,-2.474103 -2.42854,-5.937306 -2.42854,-7.696007 0,-1.758701 1.04395,-4.183499 2.3199,-5.38844 1.27594,-1.20494 5.50793,-2.815802 9.40441,-3.579694 3.96438,-0.777203 10.41456,-1.095232 14.64569,-0.722111 4.15864,0.36673 9.11904,1.427554 11.02309,2.357386 1.90406,0.929831 4.15349,2.477513 4.99873,3.439293 0.98797,1.124188 1.2396,3.096392 0.7046,5.522433 -0.45771,2.075558 -1.80055,5.365752 -2.98407,7.311543 -1.56346,2.570438 -1.99354,5.09377 -1.57286,9.228232 0.579,5.6904315 0.579,5.6904315 6.21591,6.9402715 3.10031,0.687412 6.05794,1.012844 6.57252,0.723181 0.51459,-0.289662 0.65902,-3.714758 0.32096,-7.6113235 -0.33805,-3.896565 -0.93913,-11.051839 -1.33573,-15.900607 -0.56014,-6.848248 -1.09569,-8.680193 -2.39942,-8.207743 -0.92308,0.33451 -4.56799,-0.691994 -8.09978,-2.281119 -3.5318,-1.589124 -9.20478,-3.222121 -12.60662,-3.628882 -3.40183,-0.406762 -9.68569,-0.159248 -13.96413,0.550031 -4.27844,0.709278 -9.25952,2.294652 -11.06906,3.523054 -1.80954,1.228402 -4.4222,2.233458 -5.80591,2.233458 -1.38369,0 -2.73107,0.645018 -2.99416,1.433374 -0.26308,0.788356 -0.83861,8.084532 -1.27895,16.213727 -0.73251,13.5230475 -0.6279,14.7177625 1.22974,14.0445895 1.11669,-0.404669 4.16827,-1.058604 6.78129,-1.45319 z m -9.82034,-4.83495 c 0,-3.0565345 0.34732,-10.1780955 0.77182,-15.8256895 l 0.77182,-10.268356 -5.14,-1.45428 c -2.82699,-0.799854 -5.3267,-1.277959 -5.5549,-1.062456 -0.2282,0.215502 -0.989,6.572449 -1.69067,14.126547 -0.70166,7.554098 -1.28139,14.8614815 -1.28827,16.2386305 -0.009,1.855192 0.8526,2.627672 3.32672,2.981612 1.83658,0.262736 4.5687,0.555019 6.07136,0.649516 2.48251,0.156115 2.73212,-0.33592 2.73212,-5.385524 z m 74.91249,3.986163 c 0.12909,-0.115468 -0.35456,-7.4204085 -1.07479,-16.2332015 -0.72024,-8.812794 -1.45569,-16.18803 -1.63435,-16.389414 -0.17865,-0.201384 -2.5637,0.267306 -5.30012,1.041533 l -4.97531,1.407686 0.007,6.412013 c 0.004,3.526608 0.36201,10.715719 0.79557,15.975802 l 0.78829,9.5637865 5.57936,-0.784131 c 3.06866,-0.431273 5.685,-0.878606 5.81408,-0.994074 z m -28.03307,-1.389361 c -0.40538,-0.99761 -0.73705,-3.26405 -0.73705,-5.0365345 v -3.2227 l -4.5067,2.169786 c -2.66128,1.281291 -7.01201,2.1680305 -10.62489,2.1654985 -3.90209,-0.0028 -7.51149,-0.8065755 -9.9648,-2.2192405 -3.32804,-1.916358 -3.9419,-1.980429 -4.55352,-0.475278 -0.3888,0.956822 -0.70691,3.2455175 -0.70691,5.0859905 v 3.346312 h 15.91546 c 14.01394,0 15.8274,-0.21671 15.17841,-1.813834 z"
       id="path1"
       sodipodi:nodetypes="ccsssssssssscsssssssssssscssssssssssssccsscsssssssssssssscssssscssssssssssssssssssssssssssscssscssscsssccscsccsscscssscss" />
    <path
       id="path1-8"
       style="fill:#ffd42a;stroke:#000000;stroke-width:0.885002;stroke-opacity:1"
       d="m -243.63358,1.65401 c -2.4488,0.1566718 -6.49424,1.6247854 -8.98828,3.2617187 -2.49404,1.6369324 -5.34217,4.5402308 -6.33008,6.4511723 -1.70485,3.2977 -2.32874,3.511433 -12.27734,4.224609 -5.765,0.413267 -10.9959,1.139167 -11.62305,1.611329 -0.62715,0.472172 -2.32535,6.683341 -3.77344,13.802734 -1.44808,7.119383 -3.06487,15.483714 -3.59375,18.587891 l -0.96289,5.644531 6.54493,2.152344 c 3.5989,1.184508 10.78797,3.098394 15.97656,4.251953 5.18856,1.153539 14.04289,2.676596 19.67578,3.384765 5.63289,0.70818 15.18762,1.311697 21.23242,1.341797 6.04481,0.03004 14.5198,-0.121187 18.83399,-0.335937 l 7.84375,-0.390625 0.36718,-10.486328 c 0.20185,-5.767715 0.47522,-14.448228 0.60742,-19.289063 0.21565,-7.895152 -0.0487,-8.965758 -2.57421,-10.404297 -1.54848,-0.882049 -6.44208,-2.615204 -10.875,-3.851562 -7.71876,-2.152782 -8.12558,-2.440682 -9.59571,-6.794922 -0.84431,-2.500653 -2.81666,-5.741167 -4.38281,-7.2011725 -1.56615,-1.4600035 -4.82824,-3.4617317 -7.25,-4.4492188 -2.42175,-0.987479 -6.40668,-1.6683985 -8.85547,-1.5117187 z m -39.11523,20.757813 c 0.25076,-0.188795 2.68184,0.564538 5.40234,1.673828 l 4.94531,2.017578 -1.9082,10.117188 c -1.04998,5.565334 -2.1874,12.605001 -2.52734,15.642578 -0.5616,5.018245 -0.86471,5.480068 -3.31446,5.048828 -1.48282,-0.26103 -4.16498,-0.856916 -5.96093,-1.322266 -2.41945,-0.626899 -3.18989,-1.489353 -2.97461,-3.332031 0.16,-1.367829 1.5485,-8.564948 3.08593,-15.99414 1.53746,-7.429183 3.00121,-13.662778 3.25196,-13.851563 z m 35.72851,0.988281 c 3.74751,0.06743 7.90074,0.467753 10.40235,1.054688 3.33548,0.782579 8.79185,3.037697 12.125,5.009765 3.33314,1.972048 6.84231,3.397779 7.79687,3.167969 1.34821,-0.32453 1.67568,1.555775 1.4707,8.423828 -0.14511,4.862785 -0.344,12.039233 -0.4414,15.949219 -0.0974,3.909986 -0.62046,7.298667 -1.16406,7.529297 -0.54361,0.23063 -3.44655,-0.42128 -6.45118,-1.449219 -5.46296,-1.869008 -5.46375,-1.870329 -5.40625,-7.589844 0.0417,-4.155605 0.75022,-6.615486 2.58985,-8.996093 1.39258,-1.802099 3.09164,-4.921806 3.77734,-6.933594 0.80154,-2.351488 0.77087,-4.339328 -0.0859,-5.566406 -0.73302,-1.049829 -2.79515,-2.838791 -4.58398,-3.97461 -1.78882,-1.135829 -6.60132,-2.74139 -10.69336,-3.568359 -4.16339,-0.841419 -10.60854,-1.243569 -14.63476,-0.912109 -3.95726,0.325799 -8.34211,1.456159 -9.74415,2.511718 -1.40203,1.055569 -2.7087,3.349868 -2.90429,5.097656 -0.19561,1.747799 0.50439,5.310662 1.55664,7.917969 1.18132,2.927017 1.66224,6.991801 1.25586,10.623047 l -0.65821,5.88086 -4.80078,0.183593 h -0.002 c -2.6407,0.10152 -5.74563,0.411444 -6.90039,0.689453 -1.92099,0.4624 -1.8921,-0.736073 0.33984,-14.09375 1.34171,-8.029782 2.72509,-15.216494 3.07422,-15.970703 0.34913,-0.754199 1.75967,-1.245686 3.13477,-1.091797 1.37513,0.15389 4.08459,-0.554699 6.01953,-1.574218 1.93493,-1.019529 7.06179,-2.040495 11.39258,-2.269532 1.08269,-0.05726 2.28598,-0.0713 3.53515,-0.04883 z m 44.61133,7.945313 c 0.29275,0.0049 0.47294,0.03289 0.51172,0.08789 0.15516,0.22 0.0671,7.632502 -0.19727,16.470703 -0.26437,8.838222 -0.59716,16.151524 -0.73828,16.251954 -0.14112,0.1004 -2.79108,0.254497 -5.88867,0.341796 l -5.63086,0.158204 0.2793,-9.591797 c 0.15414,-5.275655 0.59809,-12.459668 0.98633,-15.964844 l 0.70703,-6.373047 5.09961,-0.845703 c 2.10417,-0.348825 3.99284,-0.549778 4.87109,-0.535156 z m -56.65039,17.4375 c 0.63786,-0.110008 1.59929,0.474861 3.5332,1.896484 2.28097,1.676748 5.77871,2.875551 9.65625,3.3125 3.59019,0.40432 8.01156,0.0086 10.79883,-0.96875 l 4.7207,-1.65625 -0.35937,3.203125 c -0.19712,1.761478 -0.11808,4.051392 0.17383,5.087891 0.46734,1.659398 -1.36013,1.671859 -15.28711,0.113281 l -15.81641,-1.769531 0.3711,-3.326172 c 0.20469,-1.829058 0.77673,-4.06697 1.26953,-4.974609 0.2907,-0.535421 0.55674,-0.851964 0.93945,-0.917969 z m -19.52734,12.261719 c -1.67712,-0.07358 -3.29745,0.789031 -6.34571,3.083984 -2.75481,2.074018 -6.93514,6.765565 -9.28906,10.425781 -2.35391,3.660226 -5.60278,10.352188 -7.2207,14.871094 -2.0966,5.855914 -3.6202,14.051925 -5.30469,28.531255 -2.32951,20.02244 -2.32692,20.35205 0.24024,22.8164 1.43259,1.37521 3.84129,2.6374 5.35351,2.80664 1.51221,0.16922 4.02762,-0.46098 5.58984,-1.40039 2.68095,-1.6121 2.99095,-2.82331 5.51368,-21.59375 1.69187,-12.58841 3.58071,-22.114864 5.14453,-25.95703 l 2.46875,-6.06836 -0.62696,6.851563 c -0.34503,3.769105 -1.09133,14.199787 -1.6582,23.179687 -0.92996,14.73173 -1.22474,16.30527 -3.02734,16.10352 -1.09881,-0.12295 -2.04883,0.23414 -2.11133,0.79297 -0.0625,0.55883 1.0762,1.43212 2.53125,1.9414 1.45505,0.5093 11.12157,3.78928 21.48242,7.28711 10.36085,3.49786 19.26767,6.8237 19.79102,7.39063 0.51739,0.56045 -2.54994,10.40465 -6.98243,22.51953 9.8514,-5.84217 18.93582,-12.89004 27.04297,-20.98047 2.46852,-15.14528 4.68846,-30.01805 5.58985,-37.95313 1.44278,-12.70069 2.74071,-20.34933 3.26562,-19.246091 0.47913,1.007029 1.14957,5.234791 1.49024,9.396491 0.34067,4.16167 -0.23682,15.21071 -1.28321,24.55273 -0.94468,8.4339 -1.38077,12.68609 -1.25781,15.25586 7.90881,-9.28525 14.54954,-19.57966 19.74805,-30.61328 -0.0195,-4.76488 -0.13286,-9.68664 -0.40625,-12.92774 -0.39788,-4.716819 -2.02997,-12.243955 -3.62891,-16.726561 -1.59893,-4.482605 -4.75061,-10.273283 -7.00195,-12.86914 l -4.0918,-4.720703 -11.91601,0.08203 c -7.64888,0.0525 -18.42295,-0.901375 -30.08789,-2.664063 -9.99456,-1.510268 -19.56122,-3.220702 -21.25977,-3.800781 -0.6265,-0.21396 -1.19291,-0.342662 -1.75195,-0.367187 z m -36.59766,64.416014 c -0.56031,0.0698 -1.00052,0.28933 -1.18555,0.64063 -0.37006,0.70259 -4.88872,12.63707 -10.04101,26.51953 -5.1523,13.88245 -9.059,25.42787 -8.68164,25.6582 0.37736,0.23033 10.82817,3.84775 23.22461,8.03906 l 9.69668,3.0869 c 1.61093,-0.32022 3.216,-0.66924 4.81445,-1.04687 -1.82824,-0.61326 -3.4635,-1.14272 -5.38672,-1.79883 -18.65306,-6.36355 -29.13998,-9.86224 -29.29824,-10.03416 -0.15827,-0.1719 3.6526,-10.90228 8.4707,-23.84571 4.81812,-12.94345 8.7839,-23.74271 8.8125,-23.99804 0.0286,-0.2556 0.86772,-0.37314 1.86328,-0.26172 0.99556,0.11142 1.85988,-0.24907 1.92188,-0.80274 0.062,-0.55366 -0.97449,-1.40948 -2.30469,-1.90039 -0.6651,-0.24547 -1.34594,-0.32561 -1.90625,-0.25586 z m 13.77539,24.00391 c -0.96438,-0.0367 -1.91801,0.26653 -2.37109,0.81445 -0.60412,0.73055 -0.88804,2.07709 -0.63086,2.99024 0.25716,0.91316 1.6363,1.63376 3.0664,1.60156 1.65307,-0.0372 2.69247,-0.88321 2.85352,-2.32227 0.14654,-1.30944 -0.68295,-2.54409 -1.96875,-2.92968 -0.30562,-0.0917 -0.62776,-0.14208 -0.94922,-0.1543 z m -8.48047,1.21484 c -1.1854,-0.13266 -2.58682,0.55607 -3.11523,1.5293 -0.52842,0.97323 -0.41987,2.54292 0.24023,3.48828 0.6601,0.94538 1.61017,1.76421 2.11133,1.82031 0.50117,0.0561 1.6082,-0.53252 2.46094,-1.30859 0.85275,-0.77605 1.30412,-2.28365 1.0039,-3.34961 -0.30021,-1.06596 -1.51577,-2.04703 -2.70117,-2.17969 z m 33.94922,0.48047 c -0.96438,-0.0367 -1.91801,0.26849 -2.37109,0.81641 -0.60411,0.73056 -0.88804,2.07511 -0.63086,2.98828 0.25715,0.91317 1.63825,1.63376 3.06836,1.60156 1.65307,-0.0372 2.69246,-0.8832 2.85351,-2.32226 0.14654,-1.30944 -0.6849,-2.54411 -1.9707,-2.92969 -0.30562,-0.0917 -0.62776,-0.14207 -0.94922,-0.1543 z m -9.46875,1.20117 c -0.93304,0.0798 -1.81977,0.41069 -2.19726,0.86719 -0.50332,0.60869 -0.69572,1.88638 -0.42774,2.83789 0.26799,0.95154 1.55811,1.84959 2.86719,1.9961 1.30907,0.1465 2.7388,-0.16688 3.17578,-0.69532 0.43694,-0.52846 0.55324,-1.81342 0.25977,-2.85547 -0.29347,-1.04203 -1.52888,-2.0044 -2.7461,-2.14062 -0.30431,-0.0341 -0.62062,-0.0364 -0.93164,-0.01 z m 28.77735,0.96094 c -0.96439,-0.0367 -1.91997,0.26653 -2.37305,0.81445 -0.60412,0.73056 -0.88804,2.07709 -0.63086,2.99024 0.25717,0.91317 1.63825,1.63376 3.06836,1.60156 1.65308,-0.0372 2.69246,-0.88321 2.85351,-2.32226 0.14654,-1.30945 -0.68294,-2.54411 -1.96875,-2.92969 -0.30562,-0.0917 -0.62775,-0.14207 -0.94921,-0.1543 z m -9.26954,1.12695 c -0.93511,-0.10466 -2.09867,0.544 -2.58593,1.44141 -0.48725,0.8974 -0.65964,2.43507 -0.38282,3.41797 0.27682,0.98292 1.26801,1.87387 2.20313,1.97852 0.93512,0.10464 2.46307,-0.50387 3.39453,-1.35157 1.35114,-1.22963 1.42872,-1.92009 0.38281,-3.41797 -0.72103,-1.03263 -2.07659,-1.96372 -3.01172,-2.06836 z m -37.32617,2.7461 c -1.21723,-0.13623 -2.64542,0.54824 -3.17383,1.52148 -0.52842,0.97323 -0.42181,2.5429 0.23828,3.48828 0.6601,0.94536 1.91169,1.79919 2.78126,1.89649 0.86957,0.0973 2.03857,-0.80683 2.59765,-2.00781 0.55911,-1.201 0.73567,-2.73928 0.39258,-3.41797 -0.3431,-0.6787 -1.6187,-1.34425 -2.83594,-1.48047 z m 25.41016,1.68945 c -1.1854,-0.13266 -2.58682,0.55607 -3.11524,1.5293 -0.52842,0.97324 -0.42182,2.54291 0.23829,3.48828 0.66009,0.94537 1.61013,1.76421 2.11132,1.82031 0.50117,0.0561 1.61014,-0.53252 2.46289,-1.30859 0.85275,-0.77606 1.30411,-2.28364 1.00391,-3.34961 -0.30021,-1.06598 -1.51578,-2.04703 -2.70117,-2.17969 z m 18.68555,2.0918 c -0.84329,-0.0944 -1.93073,0.56156 -2.41797,1.45898 -0.48725,0.8974 -0.65964,2.43703 -0.38282,3.41992 0.27682,0.98291 1.47281,1.89469 2.65821,2.02735 1.18539,0.13267 2.5868,-0.55412 3.11523,-1.52735 0.52841,-0.97323 0.42181,-2.54291 -0.23828,-3.48828 -0.6601,-0.94537 -1.89109,-1.79622 -2.73437,-1.89062 z m -53.7168,3.36133 c -0.96439,-0.0367 -1.91802,0.26848 -2.3711,0.8164 -0.60413,0.73057 -0.88803,2.07511 -0.63086,2.98828 0.25718,0.91315 1.63629,1.63377 3.06641,1.60157 1.65307,-0.0372 2.69247,-0.88322 2.85352,-2.32227 0.14654,-1.30946 -0.68294,-2.54412 -1.96875,-2.92969 -0.30563,-0.0916 -0.62776,-0.14207 -0.94922,-0.15429 z m -8.48047,1.21679 c -1.1854,-0.13265 -2.5772,0.53689 -3.09375,1.48828 -0.51662,0.95137 -0.68633,2.22983 -0.37695,2.8418 0.30936,0.61198 1.58491,1.2274 2.83398,1.36719 1.24907,0.13979 2.62942,-0.17858 3.06641,-0.70703 0.43694,-0.52845 0.55324,-1.81344 0.25976,-2.85547 -0.29346,-1.04206 -1.50406,-2.00211 -2.68945,-2.13477 z m 27.78711,0.94532 c -0.96438,-0.0367 -1.91801,0.26652 -2.3711,0.81445 -0.60411,0.73055 -0.88803,2.07511 -0.63085,2.98828 0.25717,0.91314 1.63824,1.63376 3.06835,1.60156 1.65307,-0.0372 2.69247,-0.88125 2.85352,-2.32031 0.14654,-1.30945 -0.68294,-2.54606 -1.96875,-2.93164 -0.30562,-0.0917 -0.62971,-0.14012 -0.95117,-0.15234 z m -9.09961,1.14453 c -0.84327,-0.0944 -1.93267,0.56353 -2.41992,1.46093 -0.48724,0.8974 -0.65964,2.43506 -0.38281,3.41797 0.27681,0.98291 1.19383,1.86459 2.0371,1.95899 0.84328,0.0944 2.29511,-0.52146 3.22657,-1.36914 1.35114,-1.22963 1.4287,-1.92205 0.38281,-3.41993 -0.72104,-1.03263 -2.00047,-1.95442 -2.84375,-2.04882 z m -12.02539,4.42382 c -1.21724,-0.13622 -2.64541,0.54825 -3.17383,1.52149 -0.52842,0.97322 -0.42183,2.54292 0.23828,3.48828 0.6601,0.94538 1.91168,1.79919 2.78125,1.89649 0.86958,0.0973 2.03858,-0.80486 2.59766,-2.00586 0.55912,-1.20101 0.73567,-2.73927 0.39258,-3.41797 -0.3431,-0.67871 -1.61871,-1.34622 -2.83594,-1.48243 z m 19.24023,2.23633 c -0.51019,-0.0571 -1.06413,0.28032 -1.98633,0.97461 -1.15998,0.87332 -1.80673,2.41034 -1.48828,3.54102 0.30959,1.09926 1.53336,2.10757 2.71875,2.24023 1.18539,0.13266 2.60156,-0.58034 3.14649,-1.58398 0.56073,-1.03235 0.27028,-2.67505 -0.66797,-3.78321 -0.74591,-0.88097 -1.21246,-1.33157 -1.72266,-1.38867 z m 26.81575,2.89019 c 0.25802,-0.17201 -0.6021,-0.0121 -0.86328,0.0508 -1.04474,0.25147 -2.00787,1.41523 -2.13867,2.58398 -0.0732,0.65359 -0.0288,1.34412 0.0859,1.92188 2.09411,-0.80276 4.1683,-1.65653 6.22071,-2.56055 -0.15428,-0.26608 -0.36627,-0.53363 -0.6543,-0.8164 -0.66586,-0.6537 -3.42443,-0.66366 -2.65039,-1.17969 z m -8.92383,1.14648 c -0.52504,-0.0746 -1.0817,0.25883 -2.0039,0.95313 -1.15998,0.87333 -1.80672,2.41228 -1.48829,3.54297 0.20739,0.73636 0.87288,1.4116 1.66407,1.83593 1.56503,-0.5513 3.11997,-1.13082 4.66406,-1.73828 0.11756,-0.95296 -0.2578,-2.19339 -1.02344,-3.09765 -0.79445,-0.93831 -1.28746,-1.42147 -1.8125,-1.4961 z"
       sodipodi:nodetypes="sssssscccssccccsssssssscccssscssssscsssscscssssssscccccsssssssssssccccccsssccccscccsssssscsssscccssssssccssssccsscccsssssssscccssssssssssssssssssssssssssssscssssssccsssssssssssssssssssssssssssssssssssssssssssssssssssssssssssssssssssssssssscssscsccssssssccss" />
    <path
       id="path1-8-5"
       style="fill:#ffd42a;stroke:#000000;stroke-width:0.885002;stroke-opacity:1"
       d="m -385.509,18.547122 c -2.61222,-0.127599 -6.59559,0.554966 -8.85351,1.515626 -2.25795,0.960652 -5.58528,3.686582 -7.39454,6.058592 -1.80925,2.372 -3.53446,6.05698 -3.83203,8.1875 -0.51352,3.67664 -1.02996,4.08542 -10.17773,8.06055 -5.30093,2.3035 -9.99483,4.72338 -10.42969,5.37695 -0.43485,0.65358 0.0262,7.07704 1.02344,14.27344 0.99726,7.19638 2.24777,15.62283 2.7793,18.72656 l 0.96679,5.64258 6.88672,-0.14063 c 3.78804,-0.0773 11.20512,-0.6588 16.48242,-1.29296 5.27728,-0.63419 14.13502,-2.13609 19.6836,-3.3379 5.54858,-1.20177 14.76256,-3.80309 20.47461,-5.78124 5.71202,-1.9782 13.656,-4.93568 17.65429,-6.57032 l 7.26953,-2.9707 -3.13476,-10.01367 c -1.72416,-5.50769 -4.34791,-13.78624 -5.83008,-18.39649 -2.41735,-7.51906 -3.02302,-8.44228 -5.88281,-8.96093 -1.75347,-0.31798 -6.94513,-0.32867 -11.53711,-0.0234 -7.99569,0.53149 -8.4745,0.39474 -11.30664,-3.22461 -1.62652,-2.0786 -4.56145,-4.48054 -6.52344,-5.33789 -1.96199,-0.857346 -5.70613,-1.663414 -8.31836,-1.791018 z m 40.40234,15.751958 c 0.21939,0.15602 2.59486,7.17674 5.2793,15.60156 2.68443,8.42483 4.79902,15.43264 4.69922,15.57422 -0.0998,0.14156 -2.54844,1.16677 -5.44141,2.27734 l -5.25976,2.01953 -2.91992,-9.14258 c -1.60583,-5.02768 -3.57184,-11.95141 -4.36914,-15.38672 l -1.44922,-6.24609 4.53125,-2.49023 c 2.49209,-1.37001 4.71032,-2.36307 4.92968,-2.20703 z m -32.11914,4.78906 c 3.27299,-0.0318 7.30132,0.28815 10.1504,0.85351 3.79876,0.75381 7.5821,0.93403 8.40625,0.40039 1.16403,-0.75365 2.09712,0.91037 4.18359,7.45704 1.47728,4.63523 3.67288,11.47079 4.87891,15.1914 1.20601,3.72062 1.83661,7.09224 1.40039,7.49024 -0.43623,0.398 -3.39288,0.74573 -6.56836,0.77343 -5.77362,0.0504 -5.77287,0.049 -7.61719,-5.36523 -1.34005,-3.93384 -1.48806,-6.48746 -0.54297,-9.34375 0.71542,-2.16218 1.28271,-5.67155 1.26172,-7.79688 -0.0245,-2.48422 -0.71219,-4.34957 -1.92774,-5.22265 -1.03995,-0.74698 -3.5801,-1.74894 -5.64453,-2.22656 -2.06442,-0.47764 -7.13696,-0.39466 -11.27148,0.18359 -4.20662,0.58831 -10.41952,2.3489 -14.10742,3.99805 -3.62473,1.62091 -7.38527,4.1424 -8.35742,5.60351 -0.97217,1.46112 -1.4445,4.05983 -1.04883,5.77344 0.39565,1.71363 2.23959,4.84099 4.09765,6.95117 2.08595,2.36893 3.88695,6.04328 4.70899,9.60352 l 1.33203,5.76562 -4.46875,1.76953 c -2.45727,0.97233 -5.2823,2.29585 -6.2793,2.94141 -1.65857,1.07385 -2.03075,-0.067 -4.35937,-13.4082 -1.39982,-8.01986 -2.47937,-15.2586 -2.40039,-16.08594 0.079,-0.82733 1.24749,-1.75902 2.5957,-2.07031 1.34824,-0.31131 3.6675,-1.87842 5.1543,-3.48243 1.48678,-1.604 5.98299,-4.2702 9.99218,-5.92382 4.00919,-1.65365 10.0763,-3.30875 13.48243,-3.67774 0.85153,-0.0923 1.85822,-0.14175 2.94921,-0.15234 z m -45.35351,13.27929 c 1.02434,-0.0389 2.39409,-0.0267 3.86133,0.0449 l 5.33593,0.25976 1.55665,10.17969 c 0.85694,5.5983 2.12095,12.61556 2.80859,15.59375 1.13603,4.92013 1.00477,5.45494 -1.44922,5.86133 -1.4854,0.246 -4.2139,0.57522 -6.0625,0.73242 -2.49036,0.21177 -3.50351,-0.3466 -3.91211,-2.15625 -0.30312,-1.34338 -1.38262,-8.59305 -2.39844,-16.11133 -1.0158,-7.51829 -1.70511,-13.88321 -1.53125,-14.14453 0.0869,-0.13065 0.76668,-0.22089 1.79102,-0.25977 z m 57.24805,10.17969 0.72656,3.14063 c 0.39877,1.72703 1.23019,3.85939 1.84961,4.74023 0.99167,1.41018 -0.72619,2.02885 -14.38086,5.18164 l -15.50781,3.58203 -0.75196,-3.26172 c -0.41406,-1.79328 -0.61864,-4.09353 -0.45508,-5.11328 0.25732,-1.60415 0.86911,-1.681 4.54297,-0.5625 2.70823,0.8245 6.40626,0.79683 10.20899,-0.0781 3.52083,-0.81035 7.56044,-2.6548 9.86523,-4.50195 z m 21.28125,9.92578 -11.21289,4.03321 c -7.19775,2.58852 -17.67698,5.26523 -29.26563,7.47461 -9.92918,1.893 -19.52161,3.4541 -21.31641,3.4707 -2.64799,0.0245 -3.91817,1.01442 -6.73632,5.25 -1.91016,2.87087 -4.29533,8.68393 -5.30079,12.91798 -1.00544,4.23406 -1.84885,11.62604 -1.875,16.42578 -0.0306,5.61596 1.09491,13.1229 3.66602,24.9453 a 137.7664,137.7664 0 0 0 20.60156,17.86915 c -0.25117,-2.92291 -1.23851,-7.86547 -3.17773,-17.20312 -2.58272,-12.43626 -3.96343,-22.048 -3.76367,-26.19141 l 0.31445,-6.54688 1.68359,6.67383 c 0.92567,3.66992 3.68476,13.75711 6.13086,22.41602 4.0129,14.20513 4.25564,15.78724 2.48828,16.19531 -1.07732,0.24874 -1.85506,0.90132 -1.72851,1.44921 0.12651,0.54791 1.4916,0.99324 3.0332,0.99025 1.5416,-0.003 11.74913,-0.11809 22.6836,-0.25783 10.93446,-0.13972 20.43727,0.0413 21.11914,0.40235 0.68188,0.36106 1.06496,10.87673 0.89062,23.98633 a 137.7664,137.7664 0 0 0 23.9668,3.18359 c -0.65686,-4.11733 -1.15086,-7.35145 -1.89844,-11.92969 -3.36121,-20.58409 -8.24163,-46.73061 -10.84766,-58.10351 -2.85496,-12.45948 -4.16996,-20.106685 -3.30859,-19.24024 0.78624,0.79089 2.82258,4.55845 4.52539,8.37109 1.70281,3.81263 4.82547,14.42627 6.93945,23.58594 3.68842,15.9816 3.97984,16.73336 7.22266,18.63282 1.85857,1.08863 4.63429,1.69005 6.16797,1.33593 1.53369,-0.35412 3.67008,-1.87441 4.74805,-3.37695 1.527,-2.12839 1.68682,-4.7674 0.72265,-11.94922 -0.68067,-5.07002 -2.68433,-13.77632 -4.45117,-19.34765 -1.76684,-5.57133 -4.79919,-13.66319 -6.74023,-17.980465 -1.94104,-4.317305 -5.98031,-10.874595 -8.97657,-14.572275 -2.99623,-3.69769 -7.89158,-8.11506 -10.87695,-9.81641 z m -11.28125,94.80079 c -1.27487,0.06 -2.58672,0.8369 -2.91407,1.72657 -0.32736,0.88967 -0.14922,2.25328 0.39649,3.02929 0.54572,0.77602 2.08745,0.99727 3.42578,0.49218 1.54701,-0.5838 2.24764,-1.72578 1.92187,-3.13671 -0.29644,-1.28384 -1.48918,-2.17442 -2.83007,-2.11133 z m -8.52149,4.26563 c -0.2937,-0.0218 -0.56571,-0.008 -0.79492,0.0449 -0.91683,0.21168 -1.7992,1.21049 -1.96094,2.21875 -0.16173,1.00826 0.18605,2.5163 0.77344,3.35156 0.5874,0.83531 1.81949,1.34452 2.73633,1.13282 0.91683,-0.21168 2.1547,-1.29156 2.75195,-2.40039 0.86636,-1.60841 0.71038,-2.28581 -0.77344,-3.35157 -0.76719,-0.55105 -1.85132,-0.9306 -2.73242,-0.99609 z m -10.41015,0.10546 c -1.27488,0.06 -2.58476,0.8369 -2.91211,1.72656 -0.27059,0.73539 -0.18029,1.77722 0.16211,2.56056 a 137.7664,137.7664 0 0 0 2.20117,1.20117 c 0.47899,-0.001 0.97665,-0.0582 1.45898,-0.24023 1.547,-0.58378 2.24765,-1.72776 1.92188,-3.13869 -0.29643,-1.28382 -1.49115,-2.17246 -2.83203,-2.10937 z m 18.88671,3.81056 c -0.26615,-0.0206 -0.51204,-0.009 -0.71875,0.0391 -0.8268,0.1909 -1.63515,1.17142 -1.79687,2.1797 -0.16174,1.00824 0.18604,2.51629 0.77344,3.35156 0.58739,0.83529 2.01942,1.29959 3.18164,1.03125 1.16222,-0.26835 2.25623,-1.38311 2.43164,-2.47656 0.17539,-1.09346 -0.4483,-2.53828 -1.38477,-3.21094 -0.70236,-0.50448 -1.68787,-0.85221 -2.48633,-0.91406 z" />
  </g>
</svg>
