<?xml version="1.0" encoding="UTF-8" standalone="no"?>
<!-- Created with Inkscape (http://www.inkscape.org/) -->

<svg
   width="104.91181mm"
   height="115.10445mm"
   viewBox="0 0 104.91181 115.10445"
   version="1.1"
   id="svg1"
   inkscape:version="1.3.2 (091e20e, 2023-11-25, custom)"
   sodipodi:docname="logo.svg"
   xmlns:inkscape="http://www.inkscape.org/namespaces/inkscape"
   xmlns:sodipodi="http://sodipodi.sourceforge.net/DTD/sodipodi-0.dtd"
   xmlns="http://www.w3.org/2000/svg"
   xmlns:svg="http://www.w3.org/2000/svg">
  <sodipodi:namedview
     id="namedview1"
     pagecolor="#ffffff"
     bordercolor="#000000"
     borderopacity="0.25"
     inkscape:showpageshadow="2"
     inkscape:pageopacity="0.0"
     inkscape:pagecheckerboard="0"
     inkscape:deskcolor="#d1d1d1"
     inkscape:document-units="mm"
     showguides="true"
     inkscape:zoom="1.0449705"
     inkscape:cx="284.21854"
     inkscape:cy="768.9212"
     inkscape:window-width="2560"
     inkscape:window-height="1369"
     inkscape:window-x="-8"
     inkscape:window-y="-8"
     inkscape:window-maximized="1"
     inkscape:current-layer="layer1" />
  <defs
     id="defs1">
    <linearGradient
       id="swatch17"
       inkscape:swatch="solid">
      <stop
         style="stop-color:#3e0000;stop-opacity:1;"
         offset="0"
         id="stop17" />
    </linearGradient>
  </defs>
  <g
     inkscape:label="Livello 1"
     inkscape:groupmode="layer"
     id="layer1"
     transform="translate(-9.2334206,-103.43277)">
    <path
       style="fill:#ea8e00;fill-opacity:1;stroke:#ea8e00;stroke-width:0.728;stroke-linecap:round;stroke-dasharray:none;stroke-opacity:1"
       d="m 27.691689,139.612 c 0,0 -1.820889,2.26907 -2.453919,4.13612"
       id="path2-3"
       inkscape:export-filename="icon.png"
       inkscape:export-xdpi="400"
       inkscape:export-ydpi="400" />
    <path
       style="fill:#ea8e00;fill-opacity:1;stroke:#ea8e00;stroke-width:0.724811;stroke-linecap:round;stroke-dasharray:none;stroke-opacity:1"
       d="m 63.583073,121.31431 c 0,0 -2.806683,-0.41484 -4.685823,8.1e-4"
       id="path2-1" />
    <circle
       style="fill:#ffdba2;fill-opacity:1;stroke-width:16.1194;stroke-linecap:round"
       id="path1"
       cx="61.051712"
       cy="161.31259"
       r="39.925308" />
    <path
       sodipodi:type="star"
       style="fill:#fff6a8;fill-opacity:1;stroke:#ea8e00;stroke-width:3.5;stroke-linecap:round;stroke-dasharray:none;stroke-opacity:1"
       id="path1-7-4-2-5-9-4-4-7"
       inkscape:flatsided="true"
       sodipodi:sides="6"
       sodipodi:cx="45.575447"
       sodipodi:cy="95.455246"
       sodipodi:r1="20.510515"
       sodipodi:r2="17.762627"
       sodipodi:arg1="0.50230238"
       sodipodi:arg2="1.0259012"
       inkscape:rounded="0"
       inkscape:randomized="0"
       d="M 63.55243,105.32993 46.012214,115.96111 28.035231,106.08643 27.598464,85.580565 45.13868,74.949382 63.115663,84.824063 Z"
       transform="matrix(0.18987569,-0.10017331,0.09931516,0.18824911,44.068854,191.90343)" />
    <path
       sodipodi:type="star"
       style="fill:#fff6a8;fill-opacity:1;stroke:#ea8e00;stroke-width:3.5;stroke-linecap:round;stroke-dasharray:none;stroke-opacity:1"
       id="path1-7-4-2-5-9-4-4-7-7"
       inkscape:flatsided="true"
       sodipodi:sides="6"
       sodipodi:cx="45.575447"
       sodipodi:cy="95.455246"
       sodipodi:r1="20.510515"
       sodipodi:r2="17.762627"
       sodipodi:arg1="0.50230238"
       sodipodi:arg2="1.0259012"
       inkscape:rounded="0"
       inkscape:randomized="0"
       d="M 63.55243,105.32993 46.012214,115.96111 28.035231,106.08643 27.598464,85.580565 45.13868,74.949382 63.115663,84.824063 Z"
       transform="matrix(0.18987569,-0.10017331,0.09931516,0.18824911,12.43379,112.45664)" />
    <path
       sodipodi:type="star"
       style="fill:#fff6a8;fill-opacity:1;stroke:#ea8e00;stroke-width:3.5;stroke-linecap:round;stroke-dasharray:none;stroke-opacity:1"
       id="path1-7-4-2-5-9-4-4-7-7-2"
       inkscape:flatsided="true"
       sodipodi:sides="6"
       sodipodi:cx="45.575447"
       sodipodi:cy="95.455246"
       sodipodi:r1="20.510515"
       sodipodi:r2="17.762627"
       sodipodi:arg1="0.50230238"
       sodipodi:arg2="1.0259012"
       inkscape:rounded="0"
       inkscape:randomized="0"
       d="M 63.55243,105.32993 46.012214,115.96111 28.035231,106.08643 27.598464,85.580565 45.13868,74.949382 63.115663,84.824063 Z"
       transform="matrix(0.18987569,-0.10017331,0.09931516,0.18824911,19.880002,107.91291)" />
    <path
       sodipodi:type="star"
       style="fill:#fff6a8;fill-opacity:1;stroke:#ea8e00;stroke-width:3.5;stroke-linecap:round;stroke-dasharray:none;stroke-opacity:1"
       id="path1-7-4-2-5-9-4-4-7-7-2-7"
       inkscape:flatsided="true"
       sodipodi:sides="6"
       sodipodi:cx="45.575447"
       sodipodi:cy="95.455246"
       sodipodi:r1="20.510515"
       sodipodi:r2="17.762627"
       sodipodi:arg1="0.50230238"
       sodipodi:arg2="1.0259012"
       inkscape:rounded="0"
       inkscape:randomized="0"
       d="M 63.55243,105.32993 46.012214,115.96111 28.035231,106.08643 27.598464,85.580565 45.13868,74.949382 63.115663,84.824063 Z"
       transform="matrix(0.18987569,-0.10017331,0.09931516,0.18824911,27.296279,103.39911)" />
    <path
       sodipodi:type="star"
       style="fill:#fff6a8;fill-opacity:1;stroke:#ea8e00;stroke-width:3.5;stroke-linecap:round;stroke-dasharray:none;stroke-opacity:1"
       id="path1-7-4-2-5-9-4-4-7-7-2-7-2"
       inkscape:flatsided="true"
       sodipodi:sides="6"
       sodipodi:cx="45.575447"
       sodipodi:cy="95.455246"
       sodipodi:r1="20.510515"
       sodipodi:r2="17.762627"
       sodipodi:arg1="0.50230238"
       sodipodi:arg2="1.0259012"
       inkscape:rounded="0"
       inkscape:randomized="0"
       d="M 63.55243,105.32993 46.012214,115.96111 28.035231,106.08643 27.598464,85.580565 45.13868,74.949382 63.115663,84.824063 Z"
       transform="matrix(0.18987569,-0.10017331,0.09931516,0.18824911,82.490896,124.18889)" />
    <path
       sodipodi:type="star"
       style="fill:#fff6a8;fill-opacity:1;stroke:#ea8e00;stroke-width:3.5;stroke-linecap:round;stroke-dasharray:none;stroke-opacity:1"
       id="path1-7-4-2-5-9-4-4-7-7-2-7-2-0"
       inkscape:flatsided="true"
       sodipodi:sides="6"
       sodipodi:cx="45.575447"
       sodipodi:cy="95.455246"
       sodipodi:r1="20.510515"
       sodipodi:r2="17.762627"
       sodipodi:arg1="0.50230238"
       sodipodi:arg2="1.0259012"
       inkscape:rounded="0"
       inkscape:randomized="0"
       d="M 63.55243,105.32993 46.012214,115.96111 28.035231,106.08643 27.598464,85.580565 45.13868,74.949382 63.115663,84.824063 Z"
       transform="matrix(0.18987569,-0.10017331,0.09931516,0.18824911,67.547639,187.42297)" />
    <path
       sodipodi:type="star"
       style="fill:#fff6a8;fill-opacity:1;stroke:#ea8e00;stroke-width:3.5;stroke-linecap:round;stroke-dasharray:none;stroke-opacity:1"
       id="path1-7-4-2-5-9-4-4-7-7-2-7-2-0-4"
       inkscape:flatsided="true"
       sodipodi:sides="6"
       sodipodi:cx="45.575447"
       sodipodi:cy="95.455246"
       sodipodi:r1="20.510515"
       sodipodi:r2="17.762627"
       sodipodi:arg1="0.50230238"
       sodipodi:arg2="1.0259012"
       inkscape:rounded="0"
       inkscape:randomized="0"
       d="M 63.55243,105.32993 46.012214,115.96111 28.035231,106.08643 27.598464,85.580565 45.13868,74.949382 63.115663,84.824063 Z"
       transform="matrix(0.18987569,-0.10017331,0.09931516,0.18824911,59.67845,192.18681)" />
    <path
       sodipodi:type="star"
       style="fill:#fff6a8;fill-opacity:1;stroke:#ea8e00;stroke-width:3.5;stroke-linecap:round;stroke-dasharray:none;stroke-opacity:1"
       id="path1-7-4-2-5-9-4-4-7-7-2-7-2-0-4-4"
       inkscape:flatsided="true"
       sodipodi:sides="6"
       sodipodi:cx="45.575447"
       sodipodi:cy="95.455246"
       sodipodi:r1="20.510515"
       sodipodi:r2="17.762627"
       sodipodi:arg1="0.50230238"
       sodipodi:arg2="1.0259012"
       inkscape:rounded="0"
       inkscape:randomized="0"
       d="M 63.55243,105.32993 46.012214,115.96111 28.035231,106.08643 27.598464,85.580565 45.13868,74.949382 63.115663,84.824063 Z"
       transform="matrix(0.18987569,-0.10017331,0.09931516,0.18824911,51.684021,196.59229)" />
    <path
       sodipodi:type="star"
       style="fill:#fff6a8;fill-opacity:1;stroke:#ea8e00;stroke-width:3.5;stroke-linecap:round;stroke-dasharray:none;stroke-opacity:1"
       id="path1-7-4-2-5-9-4-4-7-7-2-7-2-0-4-4-8"
       inkscape:flatsided="true"
       sodipodi:sides="6"
       sodipodi:cx="45.575447"
       sodipodi:cy="95.455246"
       sodipodi:r1="20.510515"
       sodipodi:r2="17.762627"
       sodipodi:arg1="0.50230238"
       sodipodi:arg2="1.0259012"
       inkscape:rounded="0"
       inkscape:randomized="0"
       d="M 63.55243,105.32993 46.012214,115.96111 28.035231,106.08643 27.598464,85.580565 45.13868,74.949382 63.115663,84.824063 Z"
       transform="matrix(0.18987569,-0.10017331,0.09931516,0.18824911,36.340885,197.12144)" />
    <path
       sodipodi:type="star"
       style="fill:#fff6a8;fill-opacity:1;stroke:#ea8e00;stroke-width:3.5;stroke-linecap:round;stroke-dasharray:none;stroke-opacity:1"
       id="path1-7-4-2-5-9-4-4-7-7-2-7-2-0-4-4-8-3"
       inkscape:flatsided="true"
       sodipodi:sides="6"
       sodipodi:cx="45.575447"
       sodipodi:cy="95.455246"
       sodipodi:r1="20.510515"
       sodipodi:r2="17.762627"
       sodipodi:arg1="0.50230238"
       sodipodi:arg2="1.0259012"
       inkscape:rounded="0"
       inkscape:randomized="0"
       d="M 63.55243,105.32993 46.012214,115.96111 28.035231,106.08643 27.598464,85.580565 45.13868,74.949382 63.115663,84.824063 Z"
       transform="matrix(0.18987569,-0.10017331,0.09931516,0.18824911,28.379264,192.95644)" />
    <path
       sodipodi:type="star"
       style="fill:#fff6a8;fill-opacity:1;stroke:#ea8e00;stroke-width:3.5;stroke-linecap:round;stroke-dasharray:none;stroke-opacity:1"
       id="path1-7-4-2-5-9-4-4-7-7-2-7-2-0-4-4-8-3-4"
       inkscape:flatsided="true"
       sodipodi:sides="6"
       sodipodi:cx="45.575447"
       sodipodi:cy="95.455246"
       sodipodi:r1="20.510515"
       sodipodi:r2="17.762627"
       sodipodi:arg1="0.50230238"
       sodipodi:arg2="1.0259012"
       inkscape:rounded="0"
       inkscape:randomized="0"
       d="M 63.55243,105.32993 46.012214,115.96111 28.035231,106.08643 27.598464,85.580565 45.13868,74.949382 63.115663,84.824063 Z"
       transform="matrix(0.18987569,-0.10017331,0.09931516,0.18824911,75.037022,111.03943)" />
    <path
       sodipodi:type="star"
       style="fill:#fff6a8;fill-opacity:1;stroke:#ea8e00;stroke-width:3.5;stroke-linecap:round;stroke-dasharray:none;stroke-opacity:1"
       id="path1-7-4-2-5-9-4-4-7-7-2-7-2-0-4-4-8-3-4-6"
       inkscape:flatsided="true"
       sodipodi:sides="6"
       sodipodi:cx="45.575447"
       sodipodi:cy="95.455246"
       sodipodi:r1="20.510515"
       sodipodi:r2="17.762627"
       sodipodi:arg1="0.50230238"
       sodipodi:arg2="1.0259012"
       inkscape:rounded="0"
       inkscape:randomized="0"
       d="M 63.55243,105.32993 46.012214,115.96111 28.035231,106.08643 27.598464,85.580565 45.13868,74.949382 63.115663,84.824063 Z"
       transform="matrix(0.18987569,-0.10017331,0.09931516,0.18824911,90.554996,137.48638)" />
    <path
       sodipodi:type="star"
       style="fill:#fff6a8;fill-opacity:1;stroke:#ea8e00;stroke-width:3.5;stroke-linecap:round;stroke-dasharray:none;stroke-opacity:1"
       id="path1-7-4-2-5-9-4-4-7-7-2-7-2-0-4-4-8-3-4-9"
       inkscape:flatsided="true"
       sodipodi:sides="6"
       sodipodi:cx="45.575447"
       sodipodi:cy="95.455246"
       sodipodi:r1="20.510515"
       sodipodi:r2="17.762627"
       sodipodi:arg1="0.50230238"
       sodipodi:arg2="1.0259012"
       inkscape:rounded="0"
       inkscape:randomized="0"
       d="M 63.55243,105.32993 46.012214,115.96111 28.035231,106.08643 27.598464,85.580565 45.13868,74.949382 63.115663,84.824063 Z"
       transform="matrix(0.18987569,-0.10017331,0.09931516,0.18824911,4.1069668,116.7252)" />
    <path
       sodipodi:type="star"
       style="fill:#fff6a8;fill-opacity:1;stroke:#ea8e00;stroke-width:3.5;stroke-linecap:round;stroke-dasharray:none;stroke-opacity:1"
       id="path1-7-4-2-5-9-4-4-7-7-2-7-2-0-4-4-8-3-4-60"
       inkscape:flatsided="true"
       sodipodi:sides="6"
       sodipodi:cx="45.575447"
       sodipodi:cy="95.455246"
       sodipodi:r1="20.510515"
       sodipodi:r2="17.762627"
       sodipodi:arg1="0.50230238"
       sodipodi:arg2="1.0259012"
       inkscape:rounded="0"
       inkscape:randomized="0"
       d="M 63.55243,105.32993 46.012214,115.96111 28.035231,106.08643 27.598464,85.580565 45.13868,74.949382 63.115663,84.824063 Z"
       transform="matrix(0.18987569,-0.10017331,0.09931516,0.18824911,50.775059,98.328054)" />
    <path
       sodipodi:type="star"
       style="fill:#fff6a8;fill-opacity:1;stroke:#ea8e00;stroke-width:3.5;stroke-linecap:round;stroke-dasharray:none;stroke-opacity:1"
       id="path1-7-4-2-5-9-4-4-7-7-2-7-2-0-4-4-8-3-4-5"
       inkscape:flatsided="true"
       sodipodi:sides="6"
       sodipodi:cx="45.575447"
       sodipodi:cy="95.455246"
       sodipodi:r1="20.510515"
       sodipodi:r2="17.762627"
       sodipodi:arg1="0.50230238"
       sodipodi:arg2="1.0259012"
       inkscape:rounded="0"
       inkscape:randomized="0"
       d="M 63.55243,105.32993 46.012214,115.96111 28.035231,106.08643 27.598464,85.580565 45.13868,74.949382 63.115663,84.824063 Z"
       transform="matrix(0.18987569,-0.10017331,0.09931516,0.18824911,82.537796,115.48042)" />
    <path
       sodipodi:type="star"
       style="fill:#fff6a8;fill-opacity:1;stroke:#ea8e00;stroke-width:3.5;stroke-linecap:round;stroke-dasharray:none;stroke-opacity:1"
       id="path1-7-4-2-5-9-4-4-7-7-2-7-2-0-4-4-8-3-4-7"
       inkscape:flatsided="true"
       sodipodi:sides="6"
       sodipodi:cx="45.575447"
       sodipodi:cy="95.455246"
       sodipodi:r1="20.510515"
       sodipodi:r2="17.762627"
       sodipodi:arg1="0.50230238"
       sodipodi:arg2="1.0259012"
       inkscape:rounded="0"
       inkscape:randomized="0"
       d="M 63.55243,105.32993 46.012214,115.96111 28.035231,106.08643 27.598464,85.580565 45.13868,74.949382 63.115663,84.824063 Z"
       transform="matrix(0.18987569,-0.10017331,0.09931516,0.18824911,-4.0164627,130.35402)" />
    <path
       sodipodi:type="star"
       style="fill:#fff6a8;fill-opacity:1;stroke:#ea8e00;stroke-width:3.5;stroke-linecap:round;stroke-dasharray:none;stroke-opacity:1"
       id="path1-7-4-2-5-9-4-4-7-7-2-7-2-0-4-4-8-3-48"
       inkscape:flatsided="true"
       sodipodi:sides="6"
       sodipodi:cx="45.575447"
       sodipodi:cy="95.455246"
       sodipodi:r1="20.510515"
       sodipodi:r2="17.762627"
       sodipodi:arg1="0.50230238"
       sodipodi:arg2="1.0259012"
       inkscape:rounded="0"
       inkscape:randomized="0"
       d="M 63.55243,105.32993 46.012214,115.96111 28.035231,106.08643 27.598464,85.580565 45.13868,74.949382 63.115663,84.824063 Z"
       transform="matrix(0.18987569,-0.10017331,0.09931516,0.18824911,35.247045,98.592624)" />
    <path
       sodipodi:type="star"
       style="fill:#fff6a8;fill-opacity:1;stroke:#ea8e00;stroke-width:3.5;stroke-linecap:round;stroke-dasharray:none;stroke-opacity:1"
       id="path1-7-4-2-5-9-4-4-7-7-2-7-2-3"
       inkscape:flatsided="true"
       sodipodi:sides="6"
       sodipodi:cx="45.575447"
       sodipodi:cy="95.455246"
       sodipodi:r1="20.510515"
       sodipodi:r2="17.762627"
       sodipodi:arg1="0.50230238"
       sodipodi:arg2="1.0259012"
       inkscape:rounded="0"
       inkscape:randomized="0"
       d="M 63.55243,105.32993 46.012214,115.96111 28.035231,106.08643 27.598464,85.580565 45.13868,74.949382 63.115663,84.824063 Z"
       transform="matrix(0.18987569,-0.10017331,0.09931516,0.18824911,-3.7163687,148.27602)" />
    <path
       sodipodi:type="star"
       style="fill:#fff6a8;fill-opacity:1;stroke:#ea8e00;stroke-width:3.5;stroke-linecap:round;stroke-dasharray:none;stroke-opacity:1"
       id="path1-7-4-2-5-9-4-4-7-7-2-7-2-04"
       inkscape:flatsided="true"
       sodipodi:sides="6"
       sodipodi:cx="45.575447"
       sodipodi:cy="95.455246"
       sodipodi:r1="20.510515"
       sodipodi:r2="17.762627"
       sodipodi:arg1="0.50230238"
       sodipodi:arg2="1.0259012"
       inkscape:rounded="0"
       inkscape:randomized="0"
       d="M 63.55243,105.32993 46.012214,115.96111 28.035231,106.08643 27.598464,85.580565 45.13868,74.949382 63.115663,84.824063 Z"
       transform="matrix(0.18987569,-0.10017331,0.09931516,0.18824911,-4.0733917,157.59471)" />
    <g
       id="g2"
       transform="translate(-41.34684,-87.664801)"
       inkscape:export-filename="icon_foreground.png"
       inkscape:export-xdpi="400"
       inkscape:export-ydpi="400">
      <g
         id="g10-3-3"
         style="stroke:#000000;stroke-opacity:1"
         transform="matrix(0.68990564,0,0,0.68990564,59.64448,186.52962)">
        <path
           style="fill:#1f1f1f;fill-opacity:1;stroke:#000000;stroke-width:4.86235;stroke-linecap:round;stroke-dasharray:none;stroke-dashoffset:0;stroke-opacity:1"
           d="M 28.549492,77.028542 38.851654,135.6026"
           id="path5-7-6-3-1" />
        <path
           style="fill:#1f1f1f;fill-opacity:1;stroke:#000000;stroke-width:5.27389;stroke-linecap:round;stroke-dasharray:none;stroke-dashoffset:0;stroke-opacity:1"
           d="m 97.924829,77.05477 -12.4772,56.89653"
           id="path5-7-1-5-8-2" />
        <path
           style="fill:#1f1f1f;fill-opacity:1;stroke:#000000;stroke-width:5.06509;stroke-linecap:round;stroke-dasharray:none;stroke-dashoffset:0;stroke-opacity:1"
           d="M 28.575788,75.422605 C 63.055222,44.511996 62.203876,43.565752 62.203876,43.565752"
           id="path8-2-1-8" />
        <path
           style="fill:#1f1f1f;fill-opacity:1;stroke:#000000;stroke-width:5.28907;stroke-linecap:round;stroke-dasharray:none;stroke-dashoffset:0;stroke-opacity:1"
           d="M 98.300249,74.804236 C 65.16201,43.914392 62.109806,40.892559 62.109806,40.892559"
           id="path9-9-1-8" />
        <path
           style="fill:#1f1f1f;fill-opacity:1;stroke:#000000;stroke-width:3.49999;stroke-linecap:round;stroke-dasharray:none;stroke-dashoffset:0;stroke-opacity:1"
           id="path10-6-3-8"
           d="m 22.167258,106.30574 c 2.868309,-1.1575 5.880551,-1.91757 8.881301,-2.64301 4.80799,-1.17199 9.732034,-1.72256 14.642084,-2.25947 6.633271,-0.6777 13.296247,-1.06521 19.962897,-1.18992 1.548949,-0.029 3.098379,-0.0198 4.647569,-0.0297 6.69884,0.0229 13.40885,0.34572 20.0566,1.20163 1.16486,0.14998 2.32451,0.33792 3.48676,0.50689 4.13807,0.6667 8.206061,1.70218 12.092131,3.28496 1.92424,0.78374 2.39998,1.089 4.16877,2.02711 -2.07723,-1.1461 -2.1682,-1.25856 -0.42487,-0.0882 0,0 3.52226,1.38098 3.52226,1.38098 v 0 c -2.75922,-1.88192 -0.81722,-0.6012 -5.97651,-3.60352 -1.77031,-0.90429 -2.19666,-1.17263 -4.12068,-1.92873 -3.884101,-1.52638 -7.936211,-2.52369 -12.055951,-3.16413 -3.20748,-0.44637 -3.86828,-0.57348 -7.13579,-0.88227 -5.41911,-0.51214 -10.86482,-0.70539 -16.30675,-0.68848 -8.291667,0.0894 -16.592276,0.28852 -24.8503,1.09025 -4.947626,0.54108 -9.913403,1.06486 -14.761733,2.23309 -3.06078,0.74277 -6.113448,1.54411 -9.101278,2.54439 z" />
      </g>
      <g
         id="g11-6-9"
         transform="matrix(0.68990564,0,0,0.68990564,58.53355,187.29119)">
        <path
           style="fill:#1f1f1f;fill-opacity:1;stroke:#f49400;stroke-width:4.86235;stroke-linecap:round;stroke-dasharray:none;stroke-dashoffset:0;stroke-opacity:1"
           d="M 26.075918,73.237688 36.37808,131.81175"
           id="path5-7-2-2" />
        <path
           style="fill:#1f1f1f;fill-opacity:1;stroke:#f49400;stroke-width:5.27389;stroke-linecap:round;stroke-dasharray:none;stroke-dashoffset:0;stroke-opacity:1"
           d="M 95.451258,73.263916 82.974056,130.16045"
           id="path5-7-1-0-6" />
        <path
           style="fill:#1f1f1f;fill-opacity:1;stroke:#f49400;stroke-width:5.06509;stroke-linecap:round;stroke-dasharray:none;stroke-dashoffset:0;stroke-opacity:1"
           d="M 26.102214,71.631751 C 60.581648,40.721142 59.730302,39.774898 59.730302,39.774898"
           id="path8-3-6" />
        <path
           style="fill:#1f1f1f;fill-opacity:1;stroke:#f49400;stroke-width:5.28907;stroke-linecap:round;stroke-dasharray:none;stroke-dashoffset:0;stroke-opacity:1"
           d="M 95.826679,71.013382 C 62.688436,40.123538 59.636232,37.101705 59.636232,37.101705"
           id="path9-8-0" />
        <path
           style="fill:#1f1f1f;fill-opacity:1;stroke:#f49400;stroke-width:3.49999;stroke-linecap:round;stroke-dasharray:none;stroke-dashoffset:0;stroke-opacity:1"
           id="path10-1-0"
           d="m 19.693684,102.51489 c 2.868309,-1.1575 5.880551,-1.91757 8.881301,-2.643013 4.80799,-1.17199 9.732034,-1.72256 14.642084,-2.25947 6.633271,-0.6777 13.296247,-1.06521 19.962897,-1.18992 1.548948,-0.029 3.098377,-0.0198 4.647565,-0.0297 6.698843,0.0229 13.408858,0.34572 20.056605,1.20163 1.164857,0.14998 2.32451,0.33792 3.486763,0.50689 4.138065,0.6667 8.206057,1.70218 12.092131,3.284963 1.92424,0.78374 2.39998,1.089 4.16877,2.02711 -2.07723,-1.1461 -2.1682,-1.25856 -0.42487,-0.0882 0,0 3.52226,1.38098 3.52226,1.38098 v 0 c -2.75922,-1.88192 -0.81723,-0.6012 -5.97652,-3.60352 -1.7703,-0.90429 -2.19665,-1.172633 -4.12067,-1.928733 -3.884104,-1.52638 -7.93621,-2.52369 -12.055953,-3.16413 -3.207482,-0.44637 -3.868287,-0.57348 -7.135791,-0.88227 -5.419111,-0.51214 -10.864818,-0.70539 -16.306749,-0.68848 -8.291669,0.0894 -16.592278,0.28852 -24.850302,1.09025 -4.947626,0.54108 -9.913403,1.06486 -14.761733,2.23309 -3.06078,0.74277 -6.113448,1.54411 -9.101278,2.544393 z" />
      </g>
    </g>
    <path
       id="path1-7-0-6"
       style="fill:#fff6a8;fill-opacity:1;stroke:#ea8e00;stroke-width:0.748154;stroke-linecap:round;stroke-dasharray:none;stroke-opacity:1"
       d="m 75.268708,111.8167 -2.27428,3.75842 2.119251,3.81631 4.394047,0.0579 2.2748,-3.75843 -2.11977,-3.81631 z m -16.10496,0.71468 -2.27428,3.75843 2.119251,3.8163 4.394047,0.0584 2.274796,-3.75843 -2.119767,-3.8163 z m 23.913268,3.48971 -2.27428,3.75843 2.11925,3.8163 4.39405,0.0584 2.2748,-3.75843 -2.11977,-3.8163 z m -15.929259,0.74569 -2.27428,3.75843 0.357084,0.64285 c 2.455723,0.25055 4.883199,0.72643 7.251754,1.42162 l 1.179256,-1.94872 -2.11925,-3.8163 z m -15.976803,0.39171 -2.274796,3.75843 0.930175,1.67483 c 2.531197,-0.71003 5.125856,-1.17043 7.746814,-1.37459 l 0.111105,-0.18397 -2.119251,-3.81631 z m 24.11119,3.62252 -1.368392,2.26136 c 2.421073,0.80823 4.759796,1.84487 6.984584,3.09593 l 0.89762,-1.48259 -2.11925,-3.81631 z m -31.906063,1.1374 -2.274796,3.75842 0.318843,0.57413 c 2.223856,-1.26268 4.562967,-2.31059 6.98562,-3.12953 l -0.63562,-1.14463 z m 39.875085,3.15536 -1.08934,1.79989 c 2.171741,1.3253 4.212962,2.85349 6.09627,4.56406 l 1.50688,-2.48925 -2.11976,-3.81631 z m -47.202803,1.73219 -2.274797,3.75843 0.450619,0.81184 c 1.879275,-1.69216 3.913811,-3.20349 6.076632,-4.51394 z m 54.528973,2.94453 -1.49552,2.47116 c 1.649265,1.5839 3.160583,3.30544 4.51756,5.14594 l 1.21698,0.016 2.27428,-3.75843 -2.11925,-3.8163 z m -62.885569,1.04283 -2.274796,3.75842 2.119767,3.81631 0.573608,0.008 c 1.45484,-2.08875 3.104503,-4.03481 4.926831,-5.81205 l -0.951363,-1.71256 z m -7.794873,4.75991 -2.274796,3.75843 2.119767,3.8163 4.394047,0.0579 2.274796,-3.75843 -2.119767,-3.8163 z m 74.521032,2.97657 c 0.939558,1.37885 1.792486,2.81478 2.55385,4.29947 l 0.28629,-0.47335 -2.11925,-3.81631 z m 4.25814,4.15685 -0.97927,1.6185 c 0.891789,1.93008 1.629279,3.92776 2.20555,5.97432 l 3.012744,0.0398 2.27428,-3.75791 -2.11925,-3.81683 z m -78.693906,1.64537 -2.274796,3.75843 2.11925,3.81631 2.269112,0.03 c 0.566993,-2.51032 1.37339,-4.96049 2.408122,-7.31687 l -0.127641,-0.22996 z m -7.794873,4.75992 -2.2747957,3.75843 2.1197667,3.8163 4.394047,0.0579 2.27428,-3.75843 -2.119251,-3.8163 z m 88.107803,2.6665 c 0.60351,2.49003 0.96793,5.03198 1.08831,7.59127 l 1.70532,0.0227 2.2748,-3.75843 -2.11925,-3.81682 z m -80.13878,1.62626 -2.274797,3.75843 2.119251,3.8163 0.929659,0.0124 c 0.04218,-2.54303 0.325255,-5.07633 0.845426,-7.56595 z m 86.50222,2.55902 -2.2748,3.75843 2.11925,3.8163 4.39457,0.0584 2.27427,-3.75843 -2.11925,-3.81631 z m -5.24103,4.79402 c 0.005,0.16017 0.009,0.32037 0.0119,0.48059 -0.0253,2.3785 -0.26135,4.75008 -0.70538,7.08691 l 2.37866,0.0315 2.27428,-3.75843 -2.11925,-3.8163 z m -81.380563,1.90945 -2.274796,3.75842 2.119767,3.81631 2.159041,0.0284 c -0.582024,-2.49176 -0.925157,-5.03334 -1.024743,-7.59023 z m 86.795743,2.34921 -2.2748,3.75842 2.11925,3.81682 4.39405,0.0579 2.27479,-3.75842 -2.11925,-3.81631 z m -6.39858,4.64157 c -0.471595,2.21461 -1.129185,4.38548 -1.965774,6.48953 l 0.59376,1.06919 4.394054,0.0584 2.27428,-3.75843 -2.11925,-3.81682 z m -80.311897,1.78801 -2.274796,3.75791 2.11925,3.81682 4.394047,0.0579 0.420646,-0.69453 c -1.034626,-2.22279 -1.864034,-4.53545 -2.477884,-6.90914 z m 86.954387,2.73937 -2.27428,3.75842 2.11925,3.81682 4.39405,0.0579 2.27479,-3.75843 -2.11976,-3.8163 z m -94.74926,2.02054 -2.274796,3.75843 2.11925,3.81631 4.394047,0.0579 2.274797,-3.75842 -2.119251,-3.81631 z m 85.449046,1.78387 c -0.65823,1.38912 -1.395481,2.7394 -2.20813,4.0442 l 0.09302,0.001 2.27428,-3.75843 z m 1.61489,0.70487 -2.2748,3.75843 2.11977,3.8163 4.394054,0.0584 2.27428,-3.75843 -2.11925,-3.81682 z m -79.09543,1.80403 -2.27428,3.75842 2.119251,3.81631 4.394047,0.0579 2.274796,-3.75842 -2.11925,-3.81631 z m 86.903744,2.40037 -2.2748,3.75842 2.11977,3.81682 4.39405,0.0579 2.27428,-3.75843 -2.11925,-3.8163 z m -12.326904,0.32607 c -1.346037,2.02032 -2.872057,3.91474 -4.55941,5.66012 l 1.0387,1.87017 4.39405,0.0579 2.27479,-3.75791 -2.11925,-3.81682 z m -66.749927,1.63763 -2.27428,3.75791 2.11925,3.81682 4.394047,0.0579 1.235584,-2.04174 c -1.800637,-1.70622 -3.439723,-3.5752 -4.896342,-5.58312 z m 71.281957,2.79621 -2.2748,3.75843 2.11977,3.81682 4.394044,0.0579 2.27428,-3.75843 -2.11925,-3.8163 z m -79.114554,1.62988 -2.27428,3.75842 2.11925,3.81631 4.394047,0.0584 2.274797,-3.75842 -2.11925,-3.81683 z m 68.920854,0.69866 c -1.836271,1.82581 -3.844418,3.4702 -5.99653,4.9103 l 0.34262,0.61753 4.39404,0.0584 2.2748,-3.75842 z m -54.459721,1.61954 -0.769979,1.27228 2.119767,3.8163 4.394047,0.0584 0.479041,-0.79168 c -2.206915,-1.2524 -4.290478,-2.71065 -6.222876,-4.35529 z m 56.930371,0.62632 -2.27479,3.75843 2.11925,3.8163 4.39404,0.0584 2.2748,-3.75843 -2.11925,-3.81682 z m -63.741325,1.56218 -2.27428,3.75843 2.11925,3.8163 4.394048,0.0584 2.274796,-3.75842 -2.119767,-3.81682 z m 53.768295,1.98076 c -2.199631,1.29788 -4.517778,2.3835 -6.923093,3.24218 l 0.642338,1.15703 4.394045,0.0579 2.2748,-3.75843 z m -39.450306,0.88728 -0.307992,0.5085 2.119768,3.8163 4.394047,0.0584 0.834057,-1.37873 c -2.436722,-0.77563 -4.794,-1.78167 -7.03988,-3.00447 z m -5.877678,1.62626 -2.274796,3.75842 2.119767,3.81683 4.394047,0.0579 2.27428,-3.75842 -2.11925,-3.81631 z m 37.219951,1.17047 c -2.529938,0.82354 -5.135283,1.39425 -7.77782,1.70377 l 2.033468,3.66076 4.394047,0.0584 2.274279,-3.75842 z m -22.916948,0.59169 -0.88625,1.464 2.11925,3.8163 4.394564,0.0584 2.27428,-3.75843 -0.185002,-0.33331 c -2.60664,-0.16435 -5.1911,-0.58197 -7.716842,-1.24696 z"
       sodipodi:nodetypes="cccccccccccccccccccccccccccccccccccccccccccccccccccccccccccccccccccccccccccccccccccccccccccccccccccccccccccccccccccccccccccccccccccccccccccccccccccccccccccccccccccccccccccccccccccccccccccccccccccccccccccccccccccccccccccccccccccccccccccccsccccccccccccccccccccccccccccccccccccccccccccccc" />
    <path
       sodipodi:type="star"
       style="fill:#fff6a8;fill-opacity:1;stroke:#ea8e00;stroke-width:3.5;stroke-linecap:round;stroke-dasharray:none;stroke-opacity:1"
       id="path1-7-4-2-5-9-4-4-7-7-2-7-2-0-4-4-8-3-4-3"
       inkscape:flatsided="true"
       sodipodi:sides="6"
       sodipodi:cx="45.575447"
       sodipodi:cy="95.455246"
       sodipodi:r1="20.510515"
       sodipodi:r2="17.762627"
       sodipodi:arg1="0.50230238"
       sodipodi:arg2="1.0259012"
       inkscape:rounded="0"
       inkscape:randomized="0"
       d="M 63.55243,105.32993 46.012214,115.96111 28.035231,106.08643 27.598464,85.580565 45.13868,74.949382 63.115663,84.824063 Z"
       transform="matrix(0.18987569,-0.10017331,0.09931516,0.18824911,44.126317,200.94084)" />
    <path
       sodipodi:type="star"
       style="fill:#fff6a8;fill-opacity:1;stroke:#ea8e00;stroke-width:3.5;stroke-linecap:round;stroke-dasharray:none;stroke-opacity:1"
       id="path1-7-4-2-5-9-4-4-7-7-2-7-2-0-4-4-8-3-4-52"
       inkscape:flatsided="true"
       sodipodi:sides="6"
       sodipodi:cx="45.575447"
       sodipodi:cy="95.455246"
       sodipodi:r1="20.510515"
       sodipodi:r2="17.762627"
       sodipodi:arg1="0.50230238"
       sodipodi:arg2="1.0259012"
       inkscape:rounded="0"
       inkscape:randomized="0"
       d="M 63.55243,105.32993 46.012214,115.96111 28.035231,106.08643 27.598464,85.580565 45.13868,74.949382 63.115663,84.824063 Z"
       transform="matrix(0.18987569,-0.10017331,0.09931516,0.18824911,90.532226,128.62853)" />
    <path
       sodipodi:type="star"
       style="fill:#fff6a8;fill-opacity:1;stroke:#ea8e00;stroke-width:3.5;stroke-linecap:round;stroke-dasharray:none;stroke-opacity:1"
       id="path1-7-4-2-5-9-4-4-7-7-2-7-2-0-4-4-8-3-4-8"
       inkscape:flatsided="true"
       sodipodi:sides="6"
       sodipodi:cx="45.575447"
       sodipodi:cy="95.455246"
       sodipodi:r1="20.510515"
       sodipodi:r2="17.762627"
       sodipodi:arg1="0.50230238"
       sodipodi:arg2="1.0259012"
       inkscape:rounded="0"
       inkscape:randomized="0"
       d="M 63.55243,105.32993 46.012214,115.96111 28.035231,106.08643 27.598464,85.580565 45.13868,74.949382 63.115663,84.824063 Z"
       transform="matrix(0.18987569,-0.10017331,0.09931516,0.18824911,43.033824,94.221314)" />
    <path
       sodipodi:type="star"
       style="fill:#fff6a8;fill-opacity:1;stroke:#ea8e00;stroke-width:3.5;stroke-linecap:round;stroke-dasharray:none;stroke-opacity:1"
       id="path1-7-4-2-5-9-4-4-7-7-2-7-2-0-4-4-8-3-4-64"
       inkscape:flatsided="true"
       sodipodi:sides="6"
       sodipodi:cx="45.575447"
       sodipodi:cy="95.455246"
       sodipodi:r1="20.510515"
       sodipodi:r2="17.762627"
       sodipodi:arg1="0.50230238"
       sodipodi:arg2="1.0259012"
       inkscape:rounded="0"
       inkscape:randomized="0"
       d="M 63.55243,105.32993 46.012214,115.96111 28.035231,106.08643 27.598464,85.580565 45.13868,74.949382 63.115663,84.824063 Z"
       transform="matrix(0.18987569,-0.10017331,0.09931516,0.18824911,-3.7974257,121.6)" />
    <path
       sodipodi:type="star"
       style="fill:#fff6a8;fill-opacity:1;stroke:#ea8e00;stroke-width:3.5;stroke-linecap:round;stroke-dasharray:none;stroke-opacity:1"
       id="path1-7-4-2-5-9-4-4-7-7-2-7-2-0-4-4-8-3-4-62"
       inkscape:flatsided="true"
       sodipodi:sides="6"
       sodipodi:cx="45.575447"
       sodipodi:cy="95.455246"
       sodipodi:r1="20.510515"
       sodipodi:r2="17.762627"
       sodipodi:arg1="0.50230238"
       sodipodi:arg2="1.0259012"
       inkscape:rounded="0"
       inkscape:randomized="0"
       d="M 63.55243,105.32993 46.012214,115.96111 28.035231,106.08643 27.598464,85.580565 45.13868,74.949382 63.115663,84.824063 Z"
       transform="matrix(0.18987569,-0.10017331,0.09931516,0.18824911,90.302866,119.70581)" />
    <path
       sodipodi:type="star"
       style="fill:#fff6a8;fill-opacity:1;stroke:#ea8e00;stroke-width:3.5;stroke-linecap:round;stroke-dasharray:none;stroke-opacity:1"
       id="path1-7-4-2-5-9-4-4-7-7-2-7-2-0-4-4-8-3-4-39"
       inkscape:flatsided="true"
       sodipodi:sides="6"
       sodipodi:cx="45.575447"
       sodipodi:cy="95.455246"
       sodipodi:r1="20.510515"
       sodipodi:r2="17.762627"
       sodipodi:arg1="0.50230238"
       sodipodi:arg2="1.0259012"
       inkscape:rounded="0"
       inkscape:randomized="0"
       d="M 63.55243,105.32993 46.012214,115.96111 28.035231,106.08643 27.598464,85.580565 45.13868,74.949382 63.115663,84.824063 Z"
       transform="matrix(0.18987569,-0.10017331,0.09931516,0.18824911,-3.7336007,175.25241)" />
    <path
       style="fill:#ea8e00;fill-opacity:1;stroke:#ea8e00;stroke-width:0.728;stroke-linecap:round;stroke-dasharray:none;stroke-opacity:1"
       d="m 25.63619,179.70653 c 0,0 1.107737,2.69021 2.437019,4.1461"
       id="path2" />
  </g>
</svg>
